HIERARCHY
ROOT RootJoint
{
    OFFSET   0.000000   0.000000   0.000000
    CHANNELS 6 Xposition Yposition Zposition Xrotation Yrotation Zrotation
    JOINT pelvis_lowerback
    {
        OFFSET   0.000000   0.093605   0.000000
        CHANNELS 3 Xrotation Yrotation Zrotation
        JOINT lowerback_torso
        {
            OFFSET   0.000000   0.100000   0.000000
            CHANNELS 3 Xrotation Yrotation Zrotation
            JOINT torso_head
            {
                OFFSET   0.000000   0.282350   0.000000
                CHANNELS 3 Xrotation Yrotation Zrotation
                End Site
                {
                    OFFSET   0.000000   0.192650   0.000000
                }
            }
            JOINT rTorso_Clavicle
            {
                OFFSET  -0.001000   0.157500   0.000000
                CHANNELS 3 Xrotation Yrotation Zrotation
                JOINT rShoulder
                {
                    OFFSET  -0.117647   0.000000   0.000000
                    CHANNELS 3 Xrotation Yrotation Zrotation
                    JOINT rElbow
                    {
                        OFFSET  -0.245000   0.000000   0.000000
                        CHANNELS 3 Xrotation Yrotation Zrotation
                        JOINT rWrist
                        {
                            OFFSET  -0.240000   0.000000   0.000000
                            CHANNELS 3 Xrotation Yrotation Zrotation
                            End Site
                            {
                                OFFSET  -0.116353  -0.002500   0.000000
                            }
                        }
                    }
                }
            }
            JOINT lTorso_Clavicle
            {
                OFFSET   0.001000   0.157500   0.000000
                CHANNELS 3 Xrotation Yrotation Zrotation
                JOINT lShoulder
                {
                    OFFSET   0.117647   0.000000   0.000000
                    CHANNELS 3 Xrotation Yrotation Zrotation
                    JOINT lElbow
                    {
                        OFFSET   0.245000   0.000000   0.000000
                        CHANNELS 3 Xrotation Yrotation Zrotation
                        JOINT lWrist
                        {
                            OFFSET   0.240000   0.000000   0.000000
                            CHANNELS 3 Xrotation Yrotation Zrotation
                            End Site
                            {
                                OFFSET   0.116353  -0.002500   0.000000
                            }
                        }
                    }
                }
            }
        }
    }
    JOINT rHip
    {
        OFFSET  -0.100000  -0.051395   0.000000
        CHANNELS 3 Xrotation Yrotation Zrotation
        JOINT rKnee
        {
            OFFSET   0.000000  -0.410000   0.000000
            CHANNELS 3 Xrotation Yrotation Zrotation
            JOINT rAnkle
            {
                OFFSET   0.000000  -0.390000   0.000000
                CHANNELS 3 Xrotation Yrotation Zrotation
                JOINT rToeJoint
                {
                    OFFSET   0.000000  -0.050000   0.130000
                    CHANNELS 3 Xrotation Yrotation Zrotation
                    End Site
                    {
                        OFFSET  -0.010000   0.002000   0.060000
                    }
                }
            }
        }
    }
    JOINT lHip
    {
        OFFSET   0.100000  -0.051395   0.000000
        CHANNELS 3 Xrotation Yrotation Zrotation
        JOINT lKnee
        {
            OFFSET   0.000000  -0.410000   0.000000
            CHANNELS 3 Xrotation Yrotation Zrotation
            JOINT lAnkle
            {
                OFFSET   0.000000  -0.390000   0.000000
                CHANNELS 3 Xrotation Yrotation Zrotation
                JOINT lToeJoint
                {
                    OFFSET   0.000000  -0.050000   0.130000
                    CHANNELS 3 Xrotation Yrotation Zrotation
                    End Site
                    {
                        OFFSET   0.010000   0.002000   0.060000
                    }
                }
            }
        }
    }
}
MOTION
Frames: 15
Frame Time:   0.008333
 -2.456803   0.505475   4.247778   7.382039   6.143901   0.620736  73.534075   8.564369   2.326220  -9.424932   3.837114   3.450804   0.297051  -3.487768  -4.912332  -3.326821  44.951791 -10.673336 -41.016950  15.861957  21.657810  -0.000123   4.694008  -0.000351  -6.697605   0.894813 -10.140143 -12.067348 -34.800785   7.726597 -15.765827 -19.607113 -22.657963  -0.001404 -40.405186  -0.001049  -1.483786  -6.046265  14.725397 -95.576547  -6.440101 -36.577234 122.158547  -0.000760  -0.000216 -22.151278   9.006566  13.580817 -25.783410  -0.000238   0.000055 -93.631267  13.141531  21.972703 113.110890   0.000214   0.000465 -31.157514  -5.815470   0.516597   1.072726   0.000020  -0.000018
 -2.457146   0.503780   4.248008   7.101806   6.227623   0.585621  73.569966   8.561281   2.301120  -9.427422   3.837300   3.498745   0.244964  -3.482082  -4.883565  -3.349632  44.951047 -10.624518 -40.962953  15.785281  21.771754  -0.000165   4.871351  -0.000347  -6.727781   0.845362 -10.018316 -12.061930 -34.767263   7.766485 -15.744944 -19.664574 -22.692718  -0.001392 -40.523548  -0.001071  -1.500525  -6.027707  14.653135 -95.439324  -6.449774 -36.729482 122.450081  -0.000754  -0.000211 -22.317596   9.055476  13.551455 -25.762463  -0.000194   0.000045 -93.571045  13.020319  22.029864 113.406111   0.000343   0.000568 -31.225511  -5.916246   0.490064   1.007780  -0.000008  -0.000013
 -2.457511   0.502074   4.248243   6.823817   6.319468   0.553221  73.598923   8.556557   2.281491  -9.435049   3.836571   3.544170   0.190918  -3.477367  -4.857854  -3.367599  44.950461 -10.574925 -40.913032  15.715358  21.885649  -0.000198   5.039621  -0.000342  -6.754942   0.815448  -9.882635 -12.053932 -34.736544   7.799090 -15.724964 -19.719036 -22.731077  -0.001370 -40.634827  -0.001090  -1.517705  -6.005389  14.577345 -95.307768  -6.453495 -36.883531 122.746567  -0.000743  -0.000195 -22.473282   9.095291  13.524785 -25.761998  -0.000156   0.000036 -93.516837  12.907148  22.094224 113.700114   0.000477   0.000675 -31.288517  -6.031978   0.464367   0.946702  -0.000031  -0.000010
 -2.457879   0.500396   4.248467   6.549774   6.407328   0.521350  73.621195   8.537417   2.269656  -9.443983   3.818734   3.586838   0.140976  -3.471679  -4.836879  -3.397644  45.058546 -10.514560 -40.856304  15.625086  21.973528  -0.000203   5.187673  -0.000304  -6.785360   0.756734  -9.776542 -12.041573 -34.688560   7.829071 -15.699538 -19.758438 -22.766611  -0.001332 -40.737283  -0.001089  -1.536794  -5.974694  14.502455 -95.178501  -6.457395 -37.028592 123.037193  -0.000724  -0.000171 -22.619284   9.129696  13.499716 -25.769922  -0.000123   0.000029 -93.465353  12.796451  22.165490 113.988032   0.000590   0.000760 -31.347155  -6.151115   0.440984   0.890612  -0.000047  -0.000007
 -2.458248   0.498760   4.248673   6.286062   6.498080   0.497136  73.640574   8.539264   2.253320  -9.456849   3.828479   3.623667   0.089661  -3.469384  -4.813775  -3.405225  45.036480 -10.478603 -40.820791  15.584762  22.089766  -0.000224   5.341060  -0.000308  -6.807534   0.748739  -9.629942 -12.033836 -34.677791   7.849722 -15.687287 -19.815769 -22.811039  -0.001290 -40.836244  -0.001085  -1.553780  -5.949644  14.433184 -95.057757  -6.451958 -37.170888 123.321393  -0.000697  -0.000145 -22.758887   9.160103  13.475189 -25.779746  -0.000097   0.000023 -93.418933  12.697110  22.233481 114.264140   0.000675   0.000818 -31.398827  -6.270560   0.417857   0.839252  -0.000059  -0.000005
 -2.458611   0.497182   4.248856   6.031689   6.586659   0.476158  73.656895   8.540750   2.238144  -9.470154   3.834114   3.656338   0.042648  -3.465188  -4.793741  -3.415983  45.018688 -10.443451 -40.784730  15.540779  22.191288  -0.000251   5.483050  -0.000305  -6.826660   0.749437  -9.488407 -12.026175 -34.666245   7.867510 -15.675710 -19.869047 -22.854053  -0.001239 -40.929137  -0.001069  -1.569895  -5.926823  14.366498 -94.942312  -6.444092 -37.306027 123.594655  -0.000664  -0.000116 -22.890900   9.186812  13.451885 -25.790285  -0.000076   0.000019 -93.375892  12.603991  22.301051 114.527714   0.000735   0.000850 -31.444155  -6.388537   0.395889   0.792159  -0.000066  -0.000003
 -2.458962   0.495669   4.249015   5.786930   6.670985   0.457499  73.670445   8.540305   2.224621  -9.483745   3.837426   3.685491  -0.000984  -3.461145  -4.775740  -3.427583  45.004368 -10.410796 -40.750456  15.498325  22.283274  -0.000278   5.614920  -0.000295  -6.845078   0.748766  -9.357754 -12.018417 -34.654256   7.882668 -15.664696 -19.918286 -22.895911  -0.001180 -41.015958  -0.001039  -1.586075  -5.902147  14.302852 -94.831789  -6.435502 -37.433335 123.854985  -0.000628  -0.000089 -23.014801   9.210900  13.429802 -25.800381  -0.000059   0.000015 -93.335517  12.516396  22.368580 114.778126   0.000772   0.000860 -31.483961  -6.503628   0.375172   0.748999  -0.000070  -0.000002
 -2.459300   0.494026   4.249195   5.526169   6.767243   0.444222  73.624381   8.512555   2.210919  -9.431754   3.804608   3.725100   0.015008  -3.420432  -4.715762  -3.479290  44.991561 -10.349383 -40.733554  15.416603  22.411468  -0.000448   5.906246  -0.000244  -6.873515   0.684001  -9.208774 -11.986167 -34.643034   7.942647 -15.580261 -19.956743 -22.906280  -0.001317 -41.230389  -0.001109  -1.639994  -5.767940  14.220355 -94.714785  -6.411638 -37.574778 124.137972  -0.000601  -0.000076 -23.151422   9.238439  13.401714 -25.803930  -0.000047   0.000012 -93.285320  12.413125  22.401134 115.048269   0.000761   0.000843 -31.530837  -6.592667   0.334834   0.686458  -0.000086  -0.000001
 -2.459615   0.492358   4.249380   5.259034   6.853403   0.432589  73.574105   8.478867   2.194524  -9.380500   3.767915   3.761430   0.036992  -3.382731  -4.660053  -3.528431  44.981059 -10.289162 -40.717995  15.341154  22.532712  -0.000628   6.182378  -0.000198  -6.896845   0.655102  -9.055731 -11.949644 -34.631615   8.005553 -15.496933 -19.999649 -22.918744  -0.001440 -41.442816  -0.001170  -1.677655  -5.692548  14.107250 -94.594352  -6.386201 -37.707925 124.422566  -0.000585  -0.000066 -23.285348   9.261976  13.374031 -25.808093  -0.000037   0.000010 -93.229891  12.305993  22.433178 115.323719   0.000737   0.000813 -31.581105  -6.670897   0.301049   0.628370  -0.000092  -0.000000
 -2.459905   0.490709   4.249555   4.993771   6.928755   0.422637  73.521668   8.442616   2.178539  -9.336175   3.730116   3.792337   0.057762  -3.347739  -4.609397  -3.574987  44.972422 -10.233332 -40.703421  15.271146  22.644971  -0.000800   6.440434  -0.000154  -6.917893   0.634783  -8.909425 -11.913420 -34.622546   8.062587 -15.419039 -20.042633 -22.934934  -0.001536 -41.644641  -0.001226  -1.708030  -5.642180  13.992591 -94.475068  -6.359248 -37.831296 124.701140  -0.000571  -0.000060 -23.413916   9.285863  13.346044 -25.809537  -0.000029   0.000008 -93.174227  12.200458  22.468802 115.596713   0.000709   0.000775 -31.632283  -6.742642   0.271656   0.575201  -0.000093   0.000000
 -2.460168   0.489100   4.249714   4.733472   6.994498   0.414122  73.467378   8.404695   2.164716  -9.298850   3.691585   3.818733   0.076653  -3.315080  -4.562969  -3.619654  44.965270 -10.182493 -40.690043  15.206658  22.748191  -0.000956   6.681535  -0.000108  -6.937524   0.617735  -8.772200 -11.877952 -34.616047   8.112191 -15.346871 -20.084712 -22.955251  -0.001598 -41.834737  -0.001267  -1.735268  -5.601055  13.884411 -94.358487  -6.331609 -37.945670 124.969971  -0.000558  -0.000058 -23.534577   9.310391  13.318105 -25.809611  -0.000024   0.000006 -93.119326  12.099018  22.508733 115.862776   0.000681   0.000732 -31.682696  -6.810354   0.245409   0.526517  -0.000091   0.000000
 -2.460407   0.487548   4.249852   4.479423   7.051756   0.406748  73.411466   8.365485   2.154024  -9.267716   3.652406   3.841693   0.093827  -3.284569  -4.520156  -3.662735  44.959309 -10.136548 -40.677919  15.147522  22.842844  -0.001090   6.906875  -0.000061  -6.955903   0.603367  -8.644277 -11.843057 -34.612061   8.154279 -15.280110 -20.125755 -22.979822  -0.001626 -42.013388  -0.001289  -1.760828  -5.563577  13.783528 -94.244923  -6.303982 -38.051634 125.226943  -0.000543  -0.000057 -23.645661   9.335555  13.290321 -25.809669  -0.000019   0.000005 -93.065112  12.002807  22.553040 116.119256   0.000655   0.000687 -31.731295  -6.875517   0.221606   0.481919  -0.000088   0.000000
 -2.460623   0.486060   4.249969   4.232245   7.101277   0.400400  73.354062   8.325154   2.146963  -9.241940   3.612567   3.862002   0.109496  -3.256060  -4.480549  -3.704287  44.954307 -10.095114 -40.666988  15.093370  22.929599  -0.001201   7.117518  -0.000013  -6.973112   0.591554  -8.525194 -11.808495 -34.610510   8.189086 -15.218372 -20.165881 -23.008706  -0.001624 -42.181242  -0.001293  -1.785242  -5.527750  13.689181 -94.134293  -6.276936 -38.149604 125.470807  -0.000526  -0.000056 -23.746966   9.361131  13.262833 -25.809716  -0.000015   0.000004 -93.011310  11.912491  22.601646 116.364568   0.000631   0.000641 -31.777486  -6.938957   0.199779   0.441057  -0.000085   0.000001
 -2.460609   0.484675   4.250341   3.911414   7.046104   0.419748  73.195937   8.241275   2.174377  -9.064504   3.596807   3.845317   0.136041  -3.229116  -4.467795  -3.799903  44.914157  -9.974907 -40.636623  15.052425  23.101944  -0.001571   7.576257   0.000480  -6.964076   0.479006  -8.401806 -11.717118 -34.483096   8.002166 -15.136542 -20.199118 -23.322341  -0.000689 -42.527556  -0.001724  -1.787854  -5.473459  13.983246 -93.946219  -6.230887 -38.188179 125.711158  -0.000562  -0.000136 -23.778985   9.395865  13.196968 -25.894283  -0.000035   0.000028 -92.859002  11.878379  22.813604 116.642247   0.000750   0.000733 -31.926202  -7.070971   0.123172   0.377603  -0.000129   0.000001
 -2.460807   0.483499   4.250395   3.733533   7.138993   0.358956  73.029305   8.145956   2.217741  -8.992080   3.552090   3.929310   0.116814  -3.200585  -4.425541  -3.908002  44.851728  -9.874517 -40.614504  15.027540  23.256771  -0.002015   8.020128   0.000687  -6.944920   0.469786  -8.252697 -11.657711 -34.407621   8.080189 -14.971795 -20.205375 -23.278116  -0.000892 -42.770733  -0.001377  -1.823235  -5.389938  13.463264 -93.870660  -6.242127 -38.275565 125.901199  -0.000434  -0.000073 -23.800931   9.391748  13.171114 -25.979342  -0.000038   0.000013 -92.846514  11.741839  22.809329 116.836135   0.000671   0.000660 -31.946349  -7.131239   0.043161   0.317163  -0.000150   0.000002
